<svg xmlns="http://www.w3.org/2000/svg" xmlns:xlink="http://www.w3.org/1999/xlink" width="800" zoomAndPan="magnify" viewBox="0 0 600 599.999999" height="800" preserveAspectRatio="xMidYMid meet" version="1.0"><defs><clipPath id="5b6bd7758b"><path d="M 5 5.578125 L 595 5.578125 L 595 594.328125 L 5 594.328125 Z M 5 5.578125 " clip-rule="nonzero"/></clipPath></defs><path fill="#C6DAFA" d="M 532.546875 299.929688 C 532.546875 428.320312 428.464844 532.386719 300.046875 532.386719 C 171.628906 532.386719 67.546875 428.320312 67.546875 299.929688 C 67.546875 171.542969 171.628906 67.472656 300.046875 67.472656 C 428.464844 67.476562 532.546875 171.542969 532.546875 299.929688 " fill-opacity="1" fill-rule="nonzero"/><g clip-path="url(#5b6bd7758b)"><path fill="#E0E8FC" d="M 583.363281 299.929688 C 582.792969 406.054688 523.0625 503.363281 428.921875 552.269531 C 333.679688 601.75 216.035156 590.019531 130.300781 526.796875 C 44.097656 463.207031 2.421875 352.570312 21.5 247.792969 C 40.285156 144.664062 118.082031 59.496094 217.820312 28.78125 C 303.53125 2.382812 397.992188 20.097656 469.792969 73.070312 C 541.25 125.792969 582.882812 211.621094 583.363281 299.929688 C 583.40625 307.304688 594.863281 307.328125 594.816406 299.929688 C 594.246094 198.316406 541.640625 103.828125 455.703125 49.605469 C 368.800781 -5.222656 256.5625 -8.460938 165.398438 37.699219 C 75.515625 83.203125 15.699219 174.613281 6.398438 274.328125 C -3.078125 375.917969 43.578125 475.675781 124.515625 536.699219 C 206.761719 598.6875 319.429688 611.171875 414.0625 571.746094 C 506.578125 533.195312 573.867188 447.5 590.707031 348.957031 C 593.480469 332.761719 594.714844 316.335938 594.808594 299.9375 C 594.855469 292.539062 583.398438 292.558594 583.351562 299.9375 " fill-opacity="1" fill-rule="nonzero"/></g></svg>