<svg xmlns="http://www.w3.org/2000/svg" xmlns:xlink="http://www.w3.org/1999/xlink" width="1200" zoomAndPan="magnify" viewBox="0 0 900 599.999999" height="800" preserveAspectRatio="xMidYMid meet" version="1.0"><defs><clipPath id="ff9b054716"><path d="M 0 139.550781 L 875.949219 139.550781 L 875.949219 599.726562 L 0 599.726562 Z M 0 139.550781 " clip-rule="nonzero"/></clipPath><clipPath id="14b0be77cd"><path d="M 0 174.878906 L 836.519531 174.878906 L 836.519531 599.726562 L 0 599.726562 Z M 0 174.878906 " clip-rule="nonzero"/></clipPath><clipPath id="febe4d8409"><path d="M 0 269.332031 L 711.273438 269.332031 L 711.273438 599.726562 L 0 599.726562 Z M 0 269.332031 " clip-rule="nonzero"/></clipPath></defs><g clip-path="url(#ff9b054716)"><path fill="#ecf1f7" d="M -43.296875 139.628906 C -43.296875 139.628906 47.800781 176.898438 120.953125 280.421875 C 194.105469 382.566406 178.925781 492.992188 271.402344 537.164062 C 365.257812 582.714844 541.929688 477.808594 696.515625 510.9375 C 851.105469 545.445312 875.949219 600.660156 875.949219 600.660156 L -43.296875 600.660156 Z M -43.296875 139.628906 " fill-opacity="1" fill-rule="evenodd"/></g><g clip-path="url(#14b0be77cd)"><path fill="#e1eaf4" d="M -40.203125 174.949219 C -40.203125 174.949219 46.679688 210.46875 116.449219 309.140625 C 186.21875 406.492188 171.738281 511.742188 259.9375 553.84375 C 349.453125 597.253906 517.953125 497.269531 665.390625 528.84375 C 812.824219 561.738281 836.519531 614.359375 836.519531 614.359375 L -40.203125 614.359375 Z M -40.203125 174.949219 " fill-opacity="1" fill-rule="evenodd"/></g><g clip-path="url(#febe4d8409)"><path fill="#d4e3f4" d="M 0 269.382812 C 0 269.382812 70.488281 298.226562 127.089844 378.339844 C 183.695312 457.390625 171.945312 542.847656 243.5 577.03125 C 316.125 612.28125 452.820312 531.097656 572.4375 556.734375 C 692.050781 583.4375 711.273438 626.167969 711.273438 626.167969 L 0 626.167969 Z M 0 269.382812 " fill-opacity="1" fill-rule="evenodd"/></g></svg>