<svg xmlns="http://www.w3.org/2000/svg" xmlns:xlink="http://www.w3.org/1999/xlink" width="200" zoomAndPan="magnify" viewBox="0 0 150 149.999998" height="200" preserveAspectRatio="xMidYMid meet" version="1.0"><defs><clipPath id="e658954ec7"><path d="M 65 2.546875 L 102 2.546875 L 102 13 L 65 13 Z M 65 2.546875 " clip-rule="nonzero"/></clipPath><clipPath id="16180c6612"><path d="M 3 61 L 147.894531 61 L 147.894531 74 L 3 74 Z M 3 61 " clip-rule="nonzero"/></clipPath><clipPath id="8e90dbbbd5"><path d="M 2.394531 76 L 147.894531 76 L 147.894531 89 L 2.394531 89 Z M 2.394531 76 " clip-rule="nonzero"/></clipPath><clipPath id="29490a6110"><path d="M 48 137 L 85 137 L 85 147.296875 L 48 147.296875 Z M 48 137 " clip-rule="nonzero"/></clipPath></defs><path fill="#3c65f5" d="M 49.261719 7.417969 C 49.613281 7.15625 49.953125 6.894531 50.304688 6.632812 C 48.398438 7.320312 46.539062 8.097656 44.71875 8.941406 C 44.039062 9.328125 43.308594 9.675781 42.542969 9.988281 C 41.003906 10.753906 39.507812 11.566406 38.039062 12.441406 C 43.339844 11.917969 46.34375 9.636719 49.261719 7.417969 Z M 49.261719 7.417969 " fill-opacity="1" fill-rule="nonzero"/><g clip-path="url(#e658954ec7)"><path fill="#3c65f5" d="M 65.8125 2.917969 C 69.722656 3.65625 72.171875 5.488281 74.722656 7.417969 C 78.039062 9.9375 81.472656 12.546875 88.261719 12.546875 C 95.054688 12.546875 98.488281 9.9375 101.804688 7.417969 C 101.824219 7.398438 101.84375 7.386719 101.863281 7.367188 C 101.375 7.175781 100.890625 6.972656 100.394531 6.785156 C 97.320312 9.113281 94.226562 11.199219 88.261719 11.199219 C 81.921875 11.199219 78.816406 8.84375 75.539062 6.351562 C 73.699219 4.953125 71.832031 3.539062 69.382812 2.550781 C 68.183594 2.644531 66.988281 2.761719 65.8125 2.917969 Z M 65.8125 2.917969 " fill-opacity="1" fill-rule="nonzero"/></g><path fill="#3c65f5" d="M 23.601562 23.601562 C 26.53125 25.746094 29.886719 27.667969 35.722656 27.667969 C 42.511719 27.667969 45.945312 25.058594 49.261719 22.535156 C 52.550781 20.042969 55.65625 17.6875 61.988281 17.6875 C 68.320312 17.6875 71.433594 20.042969 74.710938 22.535156 C 78.027344 25.058594 81.464844 27.667969 88.253906 27.667969 C 95.042969 27.667969 98.476562 25.058594 101.792969 22.535156 C 105.082031 20.042969 108.183594 17.6875 114.519531 17.6875 C 117.464844 17.6875 119.695312 18.210938 121.589844 19.007812 C 120.648438 18.222656 119.683594 17.464844 118.703125 16.726562 C 117.457031 16.484375 116.085938 16.339844 114.519531 16.339844 C 107.71875 16.339844 104.292969 18.949219 100.976562 21.46875 C 97.6875 23.960938 94.585938 26.320312 88.253906 26.320312 C 81.921875 26.320312 78.808594 23.960938 75.527344 21.46875 C 72.210938 18.949219 68.777344 16.339844 61.988281 16.339844 C 55.1875 16.339844 51.765625 18.949219 48.445312 21.46875 C 45.160156 23.960938 42.066406 26.320312 35.722656 26.320312 C 30.410156 26.320312 27.375 24.660156 24.59375 22.652344 C 24.261719 22.972656 23.921875 23.273438 23.601562 23.601562 Z M 23.601562 23.601562 " fill-opacity="1" fill-rule="nonzero"/><path fill="#3c65f5" d="M 22.179688 37.65625 C 25.5 40.175781 28.933594 42.785156 35.722656 42.785156 C 42.511719 42.785156 45.945312 40.175781 49.261719 37.65625 C 52.550781 35.164062 55.65625 32.808594 61.988281 32.808594 C 68.320312 32.808594 71.433594 35.164062 74.710938 37.65625 C 78.027344 40.175781 81.464844 42.785156 88.253906 42.785156 C 95.042969 42.785156 98.488281 40.175781 101.804688 37.65625 C 105.09375 35.164062 108.195312 32.808594 114.527344 32.808594 C 120.871094 32.808594 123.972656 35.164062 127.253906 37.65625 C 130.511719 40.128906 133.886719 42.679688 140.441406 42.777344 C 140.210938 42.3125 139.976562 41.855469 139.734375 41.390625 C 134.121094 41.128906 131.164062 38.9375 128.070312 36.589844 C 124.753906 34.066406 121.316406 31.457031 114.527344 31.457031 C 107.726562 31.457031 104.304688 34.066406 100.988281 36.589844 C 97.699219 39.082031 94.59375 41.4375 88.261719 41.4375 C 81.929688 41.4375 78.816406 39.082031 75.539062 36.589844 C 72.222656 34.066406 68.789062 31.457031 61.996094 31.457031 C 55.199219 31.457031 51.773438 34.066406 48.457031 36.589844 C 45.167969 39.082031 42.074219 41.4375 35.730469 41.4375 C 29.390625 41.4375 26.296875 39.082031 23.007812 36.589844 C 20.984375 35.046875 18.902344 33.476562 16.050781 32.488281 C 15.78125 32.863281 15.507812 33.242188 15.234375 33.632812 C 18.054688 34.53125 20.089844 36.066406 22.179688 37.65625 Z M 22.179688 37.65625 " fill-opacity="1" fill-rule="nonzero"/><path fill="#3c65f5" d="M 140.804688 56.558594 C 134.460938 56.558594 131.355469 54.199219 128.078125 51.707031 C 124.761719 49.1875 121.328125 46.578125 114.539062 46.578125 C 107.738281 46.578125 104.3125 49.1875 100.996094 51.707031 C 97.707031 54.199219 94.605469 56.558594 88.273438 56.558594 C 81.941406 56.558594 78.828125 54.199219 75.546875 51.707031 C 72.230469 49.1875 68.796875 46.578125 62.007812 46.578125 C 55.207031 46.578125 51.78125 49.1875 48.464844 51.707031 C 45.179688 54.199219 42.085938 56.558594 35.742188 56.558594 C 29.398438 56.558594 26.304688 54.199219 23.019531 51.707031 C 19.699219 49.1875 16.265625 46.578125 9.476562 46.578125 C 8.980469 46.578125 8.511719 46.597656 8.054688 46.625 C 7.863281 47.082031 7.6875 47.558594 7.5 48.023438 C 8.125 47.964844 8.777344 47.925781 9.476562 47.925781 C 15.820312 47.925781 18.921875 50.28125 22.199219 52.773438 C 25.519531 55.296875 28.953125 57.90625 35.742188 57.90625 C 42.53125 57.90625 45.964844 55.296875 49.28125 52.773438 C 52.570312 50.28125 55.675781 47.925781 62.007812 47.925781 C 68.339844 47.925781 71.453125 50.28125 74.730469 52.773438 C 78.046875 55.296875 81.480469 57.90625 88.273438 57.90625 C 95.0625 57.90625 98.496094 55.296875 101.8125 52.773438 C 105.101562 50.28125 108.203125 47.925781 114.539062 47.925781 C 120.878906 47.925781 123.984375 50.28125 127.261719 52.773438 C 130.578125 55.296875 134.011719 57.90625 140.804688 57.90625 C 142.71875 57.90625 144.355469 57.691406 145.8125 57.34375 C 145.707031 56.90625 145.589844 56.46875 145.472656 56.035156 C 144.121094 56.355469 142.601562 56.558594 140.804688 56.558594 Z M 140.804688 56.558594 " fill-opacity="1" fill-rule="nonzero"/><g clip-path="url(#16180c6612)"><path fill="#3c65f5" d="M 140.804688 71.675781 C 134.460938 71.675781 131.355469 69.320312 128.078125 66.828125 C 124.761719 64.304688 121.328125 61.699219 114.539062 61.699219 C 107.738281 61.699219 104.3125 64.304688 100.996094 66.828125 C 97.707031 69.320312 94.605469 71.675781 88.273438 71.675781 C 81.941406 71.675781 78.828125 69.320312 75.546875 66.828125 C 72.230469 64.304688 68.796875 61.699219 62.007812 61.699219 C 55.207031 61.699219 51.78125 64.304688 48.464844 66.828125 C 45.179688 69.320312 42.085938 71.675781 35.742188 71.675781 C 29.398438 71.675781 26.304688 69.320312 23.019531 66.828125 C 19.699219 64.304688 16.265625 61.699219 9.476562 61.699219 C 7.074219 61.699219 5.097656 62.027344 3.386719 62.5625 C 3.300781 63.066406 3.203125 63.570312 3.125 64.074219 C 4.867188 63.441406 6.890625 63.035156 9.476562 63.035156 C 15.820312 63.035156 18.921875 65.390625 22.199219 67.886719 C 25.519531 70.40625 28.953125 73.015625 35.742188 73.015625 C 42.53125 73.015625 45.964844 70.40625 49.28125 67.886719 C 52.570312 65.390625 55.675781 63.035156 62.007812 63.035156 C 68.339844 63.035156 71.453125 65.390625 74.730469 67.886719 C 78.046875 70.40625 81.480469 73.015625 88.273438 73.015625 C 95.0625 73.015625 98.496094 70.40625 101.8125 67.886719 C 105.101562 65.390625 108.203125 63.035156 114.539062 63.035156 C 120.878906 63.035156 123.984375 65.390625 127.261719 67.886719 C 130.578125 70.40625 134.011719 73.015625 140.804688 73.015625 C 143.691406 73.015625 145.96875 72.539062 147.894531 71.804688 C 147.875 71.328125 147.847656 70.851562 147.816406 70.378906 C 145.9375 71.164062 143.722656 71.675781 140.804688 71.675781 Z M 140.804688 71.675781 " fill-opacity="1" fill-rule="nonzero"/></g><g clip-path="url(#8e90dbbbd5)"><path fill="#3c65f5" d="M 140.804688 86.796875 C 134.460938 86.796875 131.355469 84.441406 128.078125 81.945312 C 124.761719 79.425781 121.328125 76.816406 114.539062 76.816406 C 107.738281 76.816406 104.3125 79.425781 100.996094 81.945312 C 97.707031 84.441406 94.605469 86.796875 88.273438 86.796875 C 81.941406 86.796875 78.828125 84.441406 75.546875 81.945312 C 72.230469 79.425781 68.796875 76.816406 62.007812 76.816406 C 55.207031 76.816406 51.78125 79.425781 48.464844 81.945312 C 45.179688 84.441406 42.085938 86.796875 35.742188 86.796875 C 29.398438 86.796875 26.304688 84.441406 23.019531 81.945312 C 19.699219 79.425781 16.265625 76.816406 9.476562 76.816406 C 6.585938 76.816406 4.320312 77.292969 2.394531 78.019531 C 2.414062 78.496094 2.441406 78.96875 2.472656 79.445312 C 4.351562 78.667969 6.558594 78.15625 9.476562 78.15625 C 15.820312 78.15625 18.921875 80.511719 22.199219 83.003906 C 25.519531 85.527344 28.953125 88.132812 35.742188 88.132812 C 42.53125 88.132812 45.964844 85.527344 49.28125 83.003906 C 52.570312 80.511719 55.675781 78.15625 62.007812 78.15625 C 68.339844 78.15625 71.453125 80.511719 74.730469 83.003906 C 78.046875 85.527344 81.480469 88.132812 88.273438 88.132812 C 95.0625 88.132812 98.496094 85.527344 101.8125 83.003906 C 105.101562 80.511719 108.203125 78.15625 114.539062 78.15625 C 120.878906 78.15625 123.984375 80.511719 127.261719 83.003906 C 130.578125 85.527344 134.011719 88.132812 140.804688 88.132812 C 143.214844 88.132812 145.191406 87.804688 146.902344 87.269531 C 146.988281 86.765625 147.085938 86.261719 147.164062 85.757812 C 145.421875 86.390625 143.390625 86.796875 140.804688 86.796875 Z M 140.804688 86.796875 " fill-opacity="1" fill-rule="nonzero"/></g><path fill="#3c65f5" d="M 140.804688 101.914062 C 134.460938 101.914062 131.355469 99.558594 128.078125 97.066406 C 124.761719 94.546875 121.328125 91.9375 114.539062 91.9375 C 107.738281 91.9375 104.3125 94.546875 100.996094 97.066406 C 97.707031 99.558594 94.605469 101.914062 88.273438 101.914062 C 81.941406 101.914062 78.828125 99.558594 75.546875 97.066406 C 72.230469 94.546875 68.796875 91.9375 62.007812 91.9375 C 55.207031 91.9375 51.78125 94.546875 48.464844 97.066406 C 45.179688 99.558594 42.085938 101.914062 35.742188 101.914062 C 29.398438 101.914062 26.304688 99.558594 23.019531 97.066406 C 19.699219 94.546875 16.265625 91.9375 9.476562 91.9375 C 7.570312 91.9375 5.925781 92.148438 4.476562 92.5 C 4.582031 92.933594 4.699219 93.371094 4.816406 93.808594 C 6.167969 93.476562 7.675781 93.273438 9.46875 93.273438 C 15.808594 93.273438 18.914062 95.632812 22.191406 98.125 C 25.507812 100.644531 28.941406 103.253906 35.730469 103.253906 C 42.523438 103.253906 45.957031 100.644531 49.273438 98.125 C 52.5625 95.632812 55.664062 93.273438 61.996094 93.273438 C 68.332031 93.273438 71.441406 95.632812 74.722656 98.125 C 78.039062 100.644531 81.472656 103.253906 88.261719 103.253906 C 95.054688 103.253906 98.488281 100.644531 101.804688 98.125 C 105.09375 95.632812 108.195312 93.273438 114.527344 93.273438 C 120.871094 93.273438 123.972656 95.632812 127.253906 98.125 C 130.570312 100.644531 134.003906 103.253906 140.792969 103.253906 C 141.289062 103.253906 141.765625 103.234375 142.222656 103.207031 C 142.417969 102.75 142.59375 102.273438 142.777344 101.808594 C 142.164062 101.875 141.511719 101.914062 140.804688 101.914062 Z M 140.804688 101.914062 " fill-opacity="1" fill-rule="nonzero"/><path fill="#3c65f5" d="M 128.078125 112.175781 C 124.761719 109.65625 121.328125 107.046875 114.539062 107.046875 C 107.738281 107.046875 104.3125 109.65625 100.996094 112.175781 C 97.707031 114.667969 94.605469 117.023438 88.273438 117.023438 C 81.941406 117.023438 78.828125 114.667969 75.546875 112.175781 C 72.230469 109.65625 68.796875 107.046875 62.007812 107.046875 C 55.207031 107.046875 51.78125 109.65625 48.464844 112.175781 C 45.179688 114.667969 42.085938 117.023438 35.742188 117.023438 C 29.398438 117.023438 26.304688 114.667969 23.019531 112.175781 C 19.757812 109.703125 16.382812 107.152344 9.835938 107.054688 C 10.070312 107.519531 10.304688 107.976562 10.546875 108.441406 C 16.148438 108.703125 19.105469 110.894531 22.199219 113.242188 C 25.519531 115.765625 28.953125 118.375 35.742188 118.375 C 42.53125 118.375 45.964844 115.765625 49.28125 113.242188 C 52.570312 110.75 55.675781 108.394531 62.007812 108.394531 C 68.339844 108.394531 71.453125 110.75 74.730469 113.242188 C 78.046875 115.765625 81.480469 118.375 88.273438 118.375 C 95.0625 118.375 98.496094 115.765625 101.8125 113.242188 C 105.101562 110.75 108.203125 108.394531 114.539062 108.394531 C 120.878906 108.394531 123.984375 110.75 127.261719 113.242188 C 129.296875 114.785156 131.367188 116.355469 134.226562 117.34375 C 134.5 116.96875 134.78125 116.589844 135.042969 116.199219 C 132.203125 115.300781 130.171875 113.777344 128.078125 112.175781 Z M 128.078125 112.175781 " fill-opacity="1" fill-rule="nonzero"/><path fill="#3c65f5" d="M 126.667969 126.238281 C 123.730469 124.09375 120.382812 122.175781 114.539062 122.175781 C 107.738281 122.175781 104.3125 124.785156 100.996094 127.304688 C 97.707031 129.796875 94.605469 132.152344 88.273438 132.152344 C 81.941406 132.152344 78.828125 129.796875 75.546875 127.304688 C 72.230469 124.785156 68.796875 122.175781 62.007812 122.175781 C 55.207031 122.175781 51.78125 124.785156 48.464844 127.304688 C 45.179688 129.796875 42.085938 132.152344 35.742188 132.152344 C 32.804688 132.152344 30.578125 131.628906 28.6875 130.84375 C 29.632812 131.621094 30.597656 132.386719 31.578125 133.113281 C 32.8125 133.355469 34.183594 133.492188 35.742188 133.492188 C 42.53125 133.492188 45.964844 130.882812 49.28125 128.363281 C 52.570312 125.871094 55.675781 123.511719 62.007812 123.511719 C 68.339844 123.511719 71.453125 125.871094 74.730469 128.363281 C 78.046875 130.882812 81.480469 133.492188 88.273438 133.492188 C 95.0625 133.492188 98.496094 130.882812 101.8125 128.363281 C 105.101562 125.871094 108.203125 123.511719 114.539062 123.511719 C 119.859375 123.511719 122.894531 125.171875 125.675781 127.179688 C 125.996094 126.867188 126.335938 126.566406 126.667969 126.238281 Z M 126.667969 126.238281 " fill-opacity="1" fill-rule="nonzero"/><g clip-path="url(#29490a6110)"><path fill="#3c65f5" d="M 84.449219 146.925781 C 80.527344 146.1875 78.078125 144.355469 75.527344 142.425781 C 72.210938 139.902344 68.777344 137.292969 61.988281 137.292969 C 55.1875 137.292969 51.761719 139.902344 48.445312 142.425781 C 48.425781 142.433594 48.40625 142.453125 48.386719 142.464844 C 48.875 142.65625 49.359375 142.859375 49.855469 143.046875 C 52.929688 140.726562 56.035156 138.640625 61.988281 138.640625 C 68.332031 138.640625 71.433594 141 74.710938 143.492188 C 76.550781 144.886719 78.417969 146.304688 80.871094 147.292969 C 82.074219 147.195312 83.273438 147.070312 84.449219 146.925781 Z M 84.449219 146.925781 " fill-opacity="1" fill-rule="nonzero"/></g><path fill="#3c65f5" d="M 100.988281 142.414062 C 100.636719 142.675781 100.285156 142.949219 99.9375 143.199219 C 101.832031 142.511719 103.679688 141.746094 105.5 140.910156 C 106.199219 140.503906 106.960938 140.144531 107.765625 139.824219 C 109.285156 139.070312 110.773438 138.253906 112.230469 137.390625 C 106.921875 137.914062 103.914062 140.203125 100.988281 142.414062 Z M 100.988281 142.414062 " fill-opacity="1" fill-rule="nonzero"/></svg>