<svg xmlns="http://www.w3.org/2000/svg" xmlns:xlink="http://www.w3.org/1999/xlink" width="200" zoomAndPan="magnify" viewBox="0 0 150 149.999998" height="200" preserveAspectRatio="xMidYMid meet" version="1.0"><path fill="#3c65f5" d="M 16.667969 8.335938 C 16.667969 8.882812 16.613281 9.425781 16.507812 9.960938 C 16.398438 10.5 16.242188 11.019531 16.03125 11.527344 C 15.824219 12.03125 15.566406 12.511719 15.261719 12.964844 C 14.957031 13.421875 14.613281 13.84375 14.226562 14.230469 C 13.839844 14.617188 13.417969 14.960938 12.964844 15.265625 C 12.507812 15.570312 12.027344 15.828125 11.523438 16.035156 C 11.015625 16.246094 10.496094 16.402344 9.960938 16.511719 C 9.421875 16.617188 8.878906 16.671875 8.332031 16.671875 C 7.785156 16.671875 7.246094 16.617188 6.707031 16.511719 C 6.171875 16.402344 5.648438 16.246094 5.144531 16.035156 C 4.640625 15.828125 4.160156 15.570312 3.703125 15.265625 C 3.25 14.960938 2.828125 14.617188 2.441406 14.230469 C 2.054688 13.84375 1.707031 13.421875 1.40625 12.964844 C 1.101562 12.511719 0.84375 12.03125 0.632812 11.527344 C 0.425781 11.019531 0.265625 10.5 0.160156 9.960938 C 0.0546875 9.425781 0 8.882812 0 8.335938 C 0 7.789062 0.0546875 7.246094 0.160156 6.710938 C 0.265625 6.175781 0.425781 5.652344 0.632812 5.148438 C 0.84375 4.640625 1.101562 4.160156 1.40625 3.707031 C 1.707031 3.253906 2.054688 2.832031 2.441406 2.445312 C 2.828125 2.058594 3.25 1.710938 3.703125 1.40625 C 4.160156 1.105469 4.640625 0.847656 5.144531 0.636719 C 5.648438 0.429688 6.171875 0.269531 6.707031 0.164062 C 7.246094 0.0585938 7.785156 0.00390625 8.332031 0.00390625 C 8.878906 0.00390625 9.421875 0.0585938 9.960938 0.164062 C 10.496094 0.269531 11.015625 0.429688 11.523438 0.636719 C 12.027344 0.847656 12.507812 1.105469 12.964844 1.40625 C 13.417969 1.710938 13.839844 2.058594 14.226562 2.445312 C 14.613281 2.832031 14.957031 3.253906 15.261719 3.707031 C 15.566406 4.160156 15.824219 4.640625 16.03125 5.148438 C 16.242188 5.652344 16.398438 6.175781 16.507812 6.710938 C 16.613281 7.246094 16.667969 7.789062 16.667969 8.335938 Z M 16.667969 8.335938 " fill-opacity="1" fill-rule="nonzero"/><path fill="#3c65f5" d="M 16.667969 74.988281 C 16.667969 75.539062 16.613281 76.078125 16.507812 76.617188 C 16.398438 77.152344 16.242188 77.671875 16.03125 78.179688 C 15.824219 78.683594 15.566406 79.164062 15.261719 79.621094 C 14.957031 80.074219 14.613281 80.496094 14.226562 80.882812 C 13.839844 81.269531 13.417969 81.613281 12.964844 81.917969 C 12.507812 82.222656 12.027344 82.480469 11.523438 82.6875 C 11.015625 82.898438 10.496094 83.054688 9.960938 83.164062 C 9.421875 83.269531 8.878906 83.324219 8.332031 83.324219 C 7.785156 83.324219 7.246094 83.269531 6.707031 83.164062 C 6.171875 83.054688 5.648438 82.898438 5.144531 82.6875 C 4.640625 82.480469 4.160156 82.222656 3.703125 81.917969 C 3.25 81.613281 2.828125 81.269531 2.441406 80.882812 C 2.054688 80.496094 1.707031 80.074219 1.40625 79.621094 C 1.101562 79.164062 0.84375 78.683594 0.632812 78.179688 C 0.425781 77.671875 0.265625 77.152344 0.160156 76.617188 C 0.0546875 76.078125 0 75.539062 0 74.988281 C 0 74.441406 0.0546875 73.902344 0.160156 73.363281 C 0.265625 72.828125 0.425781 72.304688 0.632812 71.800781 C 0.84375 71.296875 1.101562 70.816406 1.40625 70.359375 C 1.707031 69.90625 2.054688 69.484375 2.441406 69.097656 C 2.828125 68.710938 3.25 68.363281 3.703125 68.0625 C 4.160156 67.757812 4.640625 67.5 5.144531 67.289062 C 5.648438 67.082031 6.171875 66.921875 6.707031 66.816406 C 7.246094 66.710938 7.785156 66.65625 8.332031 66.65625 C 8.878906 66.65625 9.421875 66.710938 9.960938 66.816406 C 10.496094 66.921875 11.015625 67.082031 11.523438 67.289062 C 12.027344 67.5 12.507812 67.757812 12.964844 68.0625 C 13.417969 68.363281 13.839844 68.710938 14.226562 69.097656 C 14.613281 69.484375 14.957031 69.90625 15.261719 70.359375 C 15.566406 70.816406 15.824219 71.296875 16.03125 71.800781 C 16.242188 72.304688 16.398438 72.828125 16.507812 73.363281 C 16.613281 73.902344 16.667969 74.441406 16.667969 74.988281 Z M 16.667969 74.988281 " fill-opacity="1" fill-rule="nonzero"/><path fill="#3c65f5" d="M 16.667969 141.65625 C 16.667969 142.203125 16.613281 142.746094 16.507812 143.28125 C 16.398438 143.820312 16.242188 144.339844 16.03125 144.84375 C 15.824219 145.351562 15.566406 145.832031 15.261719 146.285156 C 14.957031 146.742188 14.613281 147.164062 14.226562 147.550781 C 13.839844 147.9375 13.417969 148.28125 12.964844 148.585938 C 12.507812 148.890625 12.027344 149.144531 11.523438 149.355469 C 11.015625 149.566406 10.496094 149.722656 9.960938 149.828125 C 9.421875 149.9375 8.878906 149.988281 8.332031 149.988281 C 7.785156 149.988281 7.246094 149.9375 6.707031 149.828125 C 6.171875 149.722656 5.648438 149.566406 5.144531 149.355469 C 4.640625 149.144531 4.160156 148.890625 3.703125 148.585938 C 3.25 148.28125 2.828125 147.9375 2.441406 147.550781 C 2.054688 147.164062 1.707031 146.742188 1.40625 146.285156 C 1.101562 145.832031 0.84375 145.351562 0.632812 144.84375 C 0.425781 144.339844 0.265625 143.820312 0.160156 143.28125 C 0.0546875 142.746094 0 142.203125 0 141.65625 C 0 141.109375 0.0546875 140.566406 0.160156 140.03125 C 0.265625 139.496094 0.425781 138.972656 0.632812 138.46875 C 0.84375 137.960938 1.101562 137.480469 1.40625 137.027344 C 1.707031 136.570312 2.054688 136.152344 2.441406 135.765625 C 2.828125 135.378906 3.25 135.03125 3.703125 134.726562 C 4.160156 134.421875 4.640625 134.167969 5.144531 133.957031 C 5.648438 133.75 6.171875 133.589844 6.707031 133.484375 C 7.246094 133.375 7.785156 133.324219 8.332031 133.324219 C 8.878906 133.324219 9.421875 133.375 9.960938 133.484375 C 10.496094 133.589844 11.015625 133.75 11.523438 133.957031 C 12.027344 134.167969 12.507812 134.421875 12.964844 134.726562 C 13.417969 135.03125 13.839844 135.378906 14.226562 135.765625 C 14.613281 136.152344 14.957031 136.570312 15.261719 137.027344 C 15.566406 137.480469 15.824219 137.960938 16.03125 138.46875 C 16.242188 138.972656 16.398438 139.496094 16.507812 140.03125 C 16.613281 140.566406 16.667969 141.109375 16.667969 141.65625 Z M 16.667969 141.65625 " fill-opacity="1" fill-rule="nonzero"/><path fill="#3c65f5" d="M 50 41.652344 C 50 42.199219 49.945312 42.742188 49.839844 43.277344 C 49.734375 43.816406 49.574219 44.335938 49.367188 44.84375 C 49.15625 45.347656 48.898438 45.828125 48.59375 46.28125 C 48.292969 46.738281 47.945312 47.160156 47.558594 47.546875 C 47.171875 47.933594 46.75 48.277344 46.296875 48.582031 C 45.839844 48.886719 45.359375 49.144531 44.855469 49.351562 C 44.351562 49.5625 43.828125 49.71875 43.292969 49.828125 C 42.753906 49.933594 42.214844 49.988281 41.667969 49.988281 C 41.121094 49.988281 40.578125 49.933594 40.039062 49.828125 C 39.503906 49.71875 38.984375 49.5625 38.476562 49.351562 C 37.972656 49.144531 37.492188 48.886719 37.035156 48.582031 C 36.582031 48.277344 36.160156 47.933594 35.773438 47.546875 C 35.386719 47.160156 35.042969 46.738281 34.738281 46.28125 C 34.433594 45.828125 34.175781 45.347656 33.96875 44.84375 C 33.757812 44.335938 33.601562 43.816406 33.492188 43.277344 C 33.386719 42.742188 33.332031 42.199219 33.332031 41.652344 C 33.332031 41.105469 33.386719 40.5625 33.492188 40.027344 C 33.601562 39.492188 33.757812 38.96875 33.96875 38.464844 C 34.175781 37.957031 34.433594 37.480469 34.738281 37.023438 C 35.042969 36.570312 35.386719 36.148438 35.773438 35.761719 C 36.160156 35.375 36.582031 35.027344 37.035156 34.722656 C 37.492188 34.421875 37.972656 34.164062 38.476562 33.953125 C 38.984375 33.746094 39.503906 33.585938 40.039062 33.480469 C 40.578125 33.375 41.121094 33.320312 41.667969 33.320312 C 42.214844 33.320312 42.753906 33.375 43.292969 33.480469 C 43.828125 33.585938 44.351562 33.746094 44.855469 33.953125 C 45.359375 34.164062 45.839844 34.421875 46.296875 34.722656 C 46.75 35.027344 47.171875 35.375 47.558594 35.761719 C 47.945312 36.148438 48.292969 36.570312 48.59375 37.023438 C 48.898438 37.480469 49.15625 37.957031 49.367188 38.464844 C 49.574219 38.96875 49.734375 39.492188 49.839844 40.027344 C 49.945312 40.5625 50 41.105469 50 41.652344 Z M 50 41.652344 " fill-opacity="1" fill-rule="nonzero"/><path fill="#3c65f5" d="M 50 108.3125 C 50 108.859375 49.945312 109.402344 49.839844 109.9375 C 49.734375 110.476562 49.574219 110.996094 49.367188 111.503906 C 49.15625 112.007812 48.898438 112.488281 48.59375 112.941406 C 48.292969 113.398438 47.945312 113.820312 47.558594 114.207031 C 47.171875 114.59375 46.75 114.9375 46.296875 115.242188 C 45.839844 115.546875 45.359375 115.804688 44.855469 116.011719 C 44.351562 116.222656 43.828125 116.378906 43.292969 116.488281 C 42.753906 116.59375 42.214844 116.648438 41.667969 116.648438 C 41.121094 116.648438 40.578125 116.59375 40.039062 116.488281 C 39.503906 116.378906 38.984375 116.222656 38.476562 116.011719 C 37.972656 115.804688 37.492188 115.546875 37.035156 115.242188 C 36.582031 114.9375 36.160156 114.59375 35.773438 114.207031 C 35.386719 113.820312 35.042969 113.398438 34.738281 112.941406 C 34.433594 112.488281 34.175781 112.007812 33.96875 111.503906 C 33.757812 110.996094 33.601562 110.476562 33.492188 109.9375 C 33.386719 109.402344 33.332031 108.859375 33.332031 108.3125 C 33.332031 107.765625 33.386719 107.222656 33.492188 106.6875 C 33.601562 106.152344 33.757812 105.628906 33.96875 105.125 C 34.175781 104.617188 34.433594 104.136719 34.738281 103.683594 C 35.042969 103.230469 35.386719 102.808594 35.773438 102.421875 C 36.160156 102.035156 36.582031 101.6875 37.035156 101.382812 C 37.492188 101.082031 37.972656 100.824219 38.476562 100.613281 C 38.984375 100.40625 39.503906 100.246094 40.039062 100.140625 C 40.578125 100.035156 41.121094 99.980469 41.667969 99.980469 C 42.214844 99.980469 42.753906 100.035156 43.292969 100.140625 C 43.828125 100.246094 44.351562 100.40625 44.855469 100.613281 C 45.359375 100.824219 45.839844 101.082031 46.296875 101.382812 C 46.75 101.6875 47.171875 102.035156 47.558594 102.421875 C 47.945312 102.808594 48.292969 103.230469 48.59375 103.683594 C 48.898438 104.136719 49.15625 104.617188 49.367188 105.125 C 49.574219 105.628906 49.734375 106.152344 49.839844 106.6875 C 49.945312 107.222656 50 107.765625 50 108.3125 Z M 50 108.3125 " fill-opacity="1" fill-rule="nonzero"/><path fill="#3c65f5" d="M 83.328125 8.335938 C 83.328125 8.882812 83.277344 9.425781 83.167969 9.960938 C 83.0625 10.5 82.90625 11.019531 82.695312 11.527344 C 82.484375 12.03125 82.230469 12.511719 81.925781 12.964844 C 81.621094 13.421875 81.277344 13.84375 80.890625 14.230469 C 80.503906 14.617188 80.082031 14.960938 79.625 15.265625 C 79.171875 15.570312 78.691406 15.828125 78.1875 16.035156 C 77.679688 16.246094 77.160156 16.402344 76.621094 16.511719 C 76.085938 16.617188 75.542969 16.671875 74.996094 16.671875 C 74.449219 16.671875 73.90625 16.617188 73.371094 16.511719 C 72.835938 16.402344 72.3125 16.246094 71.808594 16.035156 C 71.300781 15.828125 70.820312 15.570312 70.367188 15.265625 C 69.910156 14.960938 69.492188 14.617188 69.105469 14.230469 C 68.71875 13.84375 68.371094 13.421875 68.066406 12.964844 C 67.765625 12.511719 67.507812 12.03125 67.296875 11.527344 C 67.089844 11.019531 66.929688 10.5 66.824219 9.960938 C 66.714844 9.425781 66.664062 8.882812 66.664062 8.335938 C 66.664062 7.789062 66.714844 7.246094 66.824219 6.710938 C 66.929688 6.175781 67.089844 5.652344 67.296875 5.148438 C 67.507812 4.640625 67.765625 4.160156 68.066406 3.707031 C 68.371094 3.253906 68.71875 2.832031 69.105469 2.445312 C 69.492188 2.058594 69.910156 1.710938 70.367188 1.40625 C 70.820312 1.105469 71.300781 0.847656 71.808594 0.636719 C 72.3125 0.429688 72.835938 0.269531 73.371094 0.164062 C 73.90625 0.0585938 74.449219 0.00390625 74.996094 0.00390625 C 75.542969 0.00390625 76.085938 0.0585938 76.621094 0.164062 C 77.160156 0.269531 77.679688 0.429688 78.1875 0.636719 C 78.691406 0.847656 79.171875 1.105469 79.625 1.40625 C 80.082031 1.710938 80.503906 2.058594 80.890625 2.445312 C 81.277344 2.832031 81.621094 3.253906 81.925781 3.707031 C 82.230469 4.160156 82.484375 4.640625 82.695312 5.148438 C 82.90625 5.652344 83.0625 6.175781 83.167969 6.710938 C 83.277344 7.246094 83.328125 7.789062 83.328125 8.335938 Z M 83.328125 8.335938 " fill-opacity="1" fill-rule="nonzero"/><path fill="#3c65f5" d="M 83.328125 74.996094 C 83.328125 75.542969 83.277344 76.085938 83.167969 76.621094 C 83.0625 77.160156 82.90625 77.679688 82.695312 78.1875 C 82.484375 78.691406 82.230469 79.171875 81.925781 79.625 C 81.621094 80.082031 81.277344 80.503906 80.890625 80.890625 C 80.503906 81.277344 80.082031 81.621094 79.625 81.925781 C 79.171875 82.230469 78.691406 82.484375 78.1875 82.695312 C 77.679688 82.90625 77.160156 83.0625 76.621094 83.167969 C 76.085938 83.277344 75.542969 83.328125 74.996094 83.328125 C 74.449219 83.328125 73.90625 83.277344 73.371094 83.167969 C 72.835938 83.0625 72.3125 82.90625 71.808594 82.695312 C 71.300781 82.484375 70.820312 82.230469 70.367188 81.925781 C 69.910156 81.621094 69.492188 81.277344 69.105469 80.890625 C 68.71875 80.503906 68.371094 80.082031 68.066406 79.625 C 67.765625 79.171875 67.507812 78.691406 67.296875 78.1875 C 67.089844 77.679688 66.929688 77.160156 66.824219 76.621094 C 66.714844 76.085938 66.664062 75.542969 66.664062 74.996094 C 66.664062 74.449219 66.714844 73.90625 66.824219 73.371094 C 66.929688 72.835938 67.089844 72.3125 67.296875 71.808594 C 67.507812 71.300781 67.765625 70.820312 68.066406 70.367188 C 68.371094 69.910156 68.71875 69.492188 69.105469 69.105469 C 69.492188 68.71875 69.910156 68.371094 70.367188 68.066406 C 70.820312 67.765625 71.300781 67.507812 71.808594 67.296875 C 72.3125 67.089844 72.835938 66.929688 73.371094 66.824219 C 73.90625 66.714844 74.449219 66.664062 74.996094 66.664062 C 75.542969 66.664062 76.085938 66.714844 76.621094 66.824219 C 77.160156 66.929688 77.679688 67.089844 78.1875 67.296875 C 78.691406 67.507812 79.171875 67.765625 79.625 68.066406 C 80.082031 68.371094 80.503906 68.71875 80.890625 69.105469 C 81.277344 69.492188 81.621094 69.910156 81.925781 70.367188 C 82.230469 70.820312 82.484375 71.300781 82.695312 71.808594 C 82.90625 72.3125 83.0625 72.835938 83.167969 73.371094 C 83.277344 73.90625 83.328125 74.449219 83.328125 74.996094 Z M 83.328125 74.996094 " fill-opacity="1" fill-rule="nonzero"/><path fill="#3c65f5" d="M 83.328125 141.664062 C 83.328125 142.210938 83.277344 142.753906 83.167969 143.289062 C 83.0625 143.824219 82.90625 144.347656 82.695312 144.851562 C 82.484375 145.359375 82.230469 145.839844 81.925781 146.292969 C 81.621094 146.746094 81.277344 147.167969 80.890625 147.554688 C 80.503906 147.941406 80.082031 148.289062 79.625 148.59375 C 79.171875 148.894531 78.691406 149.152344 78.1875 149.363281 C 77.679688 149.570312 77.160156 149.730469 76.621094 149.835938 C 76.085938 149.941406 75.542969 149.996094 74.996094 149.996094 C 74.449219 149.996094 73.90625 149.941406 73.371094 149.835938 C 72.835938 149.730469 72.3125 149.570312 71.808594 149.363281 C 71.300781 149.152344 70.820312 148.894531 70.367188 148.59375 C 69.910156 148.289062 69.492188 147.941406 69.105469 147.554688 C 68.71875 147.167969 68.371094 146.746094 68.066406 146.292969 C 67.765625 145.839844 67.507812 145.359375 67.296875 144.851562 C 67.089844 144.347656 66.929688 143.824219 66.824219 143.289062 C 66.714844 142.753906 66.664062 142.210938 66.664062 141.664062 C 66.664062 141.117188 66.714844 140.574219 66.824219 140.039062 C 66.929688 139.5 67.089844 138.980469 67.296875 138.472656 C 67.507812 137.96875 67.765625 137.488281 68.066406 137.035156 C 68.371094 136.578125 68.71875 136.15625 69.105469 135.769531 C 69.492188 135.382812 69.910156 135.039062 70.367188 134.734375 C 70.820312 134.429688 71.300781 134.171875 71.808594 133.964844 C 72.3125 133.753906 72.835938 133.597656 73.371094 133.488281 C 73.90625 133.382812 74.449219 133.328125 74.996094 133.328125 C 75.542969 133.328125 76.085938 133.382812 76.621094 133.488281 C 77.160156 133.597656 77.679688 133.753906 78.1875 133.964844 C 78.691406 134.171875 79.171875 134.429688 79.625 134.734375 C 80.082031 135.039062 80.503906 135.382812 80.890625 135.769531 C 81.277344 136.15625 81.621094 136.578125 81.925781 137.035156 C 82.230469 137.488281 82.484375 137.96875 82.695312 138.472656 C 82.90625 138.980469 83.0625 139.5 83.167969 140.039062 C 83.277344 140.574219 83.328125 141.117188 83.328125 141.664062 Z M 83.328125 141.664062 " fill-opacity="1" fill-rule="nonzero"/><path fill="#3c65f5" d="M 116.664062 41.65625 C 116.664062 42.203125 116.609375 42.746094 116.503906 43.28125 C 116.394531 43.820312 116.238281 44.339844 116.027344 44.84375 C 115.820312 45.351562 115.5625 45.832031 115.257812 46.285156 C 114.953125 46.742188 114.609375 47.164062 114.222656 47.550781 C 113.835938 47.9375 113.414062 48.28125 112.960938 48.585938 C 112.503906 48.890625 112.023438 49.144531 111.519531 49.355469 C 111.011719 49.566406 110.492188 49.722656 109.957031 49.828125 C 109.417969 49.9375 108.878906 49.988281 108.328125 49.988281 C 107.78125 49.988281 107.242188 49.9375 106.703125 49.828125 C 106.167969 49.722656 105.644531 49.566406 105.140625 49.355469 C 104.636719 49.144531 104.15625 48.890625 103.699219 48.585938 C 103.246094 48.28125 102.824219 47.9375 102.4375 47.550781 C 102.050781 47.164062 101.703125 46.742188 101.402344 46.285156 C 101.097656 45.832031 100.839844 45.351562 100.632812 44.84375 C 100.421875 44.339844 100.261719 43.820312 100.15625 43.28125 C 100.050781 42.746094 99.996094 42.203125 99.996094 41.65625 C 99.996094 41.109375 100.050781 40.566406 100.15625 40.03125 C 100.261719 39.496094 100.421875 38.972656 100.632812 38.46875 C 100.839844 37.960938 101.097656 37.480469 101.402344 37.027344 C 101.703125 36.570312 102.050781 36.152344 102.4375 35.765625 C 102.824219 35.378906 103.246094 35.03125 103.699219 34.726562 C 104.15625 34.421875 104.636719 34.167969 105.140625 33.957031 C 105.644531 33.75 106.167969 33.589844 106.703125 33.484375 C 107.242188 33.375 107.78125 33.324219 108.328125 33.324219 C 108.878906 33.324219 109.417969 33.375 109.957031 33.484375 C 110.492188 33.589844 111.011719 33.75 111.519531 33.957031 C 112.023438 34.167969 112.503906 34.421875 112.960938 34.726562 C 113.414062 35.03125 113.835938 35.378906 114.222656 35.765625 C 114.609375 36.152344 114.953125 36.570312 115.257812 37.027344 C 115.5625 37.480469 115.820312 37.960938 116.027344 38.46875 C 116.238281 38.972656 116.394531 39.496094 116.503906 40.03125 C 116.609375 40.566406 116.664062 41.109375 116.664062 41.65625 Z M 116.664062 41.65625 " fill-opacity="1" fill-rule="nonzero"/><path fill="#3c65f5" d="M 116.664062 108.316406 C 116.664062 108.863281 116.609375 109.40625 116.503906 109.941406 C 116.394531 110.480469 116.238281 111 116.027344 111.503906 C 115.820312 112.011719 115.5625 112.492188 115.257812 112.945312 C 114.953125 113.402344 114.609375 113.824219 114.222656 114.210938 C 113.835938 114.597656 113.414062 114.941406 112.960938 115.246094 C 112.503906 115.550781 112.023438 115.804688 111.519531 116.015625 C 111.011719 116.226562 110.492188 116.382812 109.957031 116.488281 C 109.417969 116.597656 108.878906 116.648438 108.328125 116.648438 C 107.78125 116.648438 107.242188 116.597656 106.703125 116.488281 C 106.167969 116.382812 105.644531 116.226562 105.140625 116.015625 C 104.636719 115.804688 104.15625 115.550781 103.699219 115.246094 C 103.246094 114.941406 102.824219 114.597656 102.4375 114.210938 C 102.050781 113.824219 101.703125 113.402344 101.402344 112.945312 C 101.097656 112.492188 100.839844 112.011719 100.632812 111.503906 C 100.421875 111 100.261719 110.480469 100.15625 109.941406 C 100.050781 109.40625 99.996094 108.863281 99.996094 108.316406 C 99.996094 107.769531 100.050781 107.226562 100.15625 106.691406 C 100.261719 106.152344 100.421875 105.632812 100.632812 105.128906 C 100.839844 104.621094 101.097656 104.140625 101.402344 103.6875 C 101.703125 103.230469 102.050781 102.8125 102.4375 102.425781 C 102.824219 102.039062 103.246094 101.691406 103.699219 101.386719 C 104.15625 101.082031 104.636719 100.828125 105.140625 100.617188 C 105.644531 100.410156 106.167969 100.25 106.703125 100.144531 C 107.242188 100.035156 107.78125 99.984375 108.328125 99.984375 C 108.878906 99.984375 109.417969 100.035156 109.957031 100.144531 C 110.492188 100.25 111.011719 100.410156 111.519531 100.617188 C 112.023438 100.828125 112.503906 101.082031 112.960938 101.386719 C 113.414062 101.691406 113.835938 102.039062 114.222656 102.425781 C 114.609375 102.8125 114.953125 103.230469 115.257812 103.6875 C 115.5625 104.140625 115.820312 104.621094 116.027344 105.128906 C 116.238281 105.632812 116.394531 106.152344 116.503906 106.691406 C 116.609375 107.226562 116.664062 107.769531 116.664062 108.316406 Z M 116.664062 108.316406 " fill-opacity="1" fill-rule="nonzero"/><path fill="#3c65f5" d="M 150 8.335938 C 150 8.882812 149.945312 9.425781 149.839844 9.960938 C 149.734375 10.5 149.574219 11.019531 149.367188 11.527344 C 149.15625 12.03125 148.898438 12.511719 148.59375 12.964844 C 148.292969 13.421875 147.945312 13.84375 147.558594 14.230469 C 147.171875 14.617188 146.75 14.960938 146.296875 15.265625 C 145.839844 15.570312 145.359375 15.828125 144.855469 16.035156 C 144.351562 16.246094 143.828125 16.402344 143.292969 16.511719 C 142.753906 16.617188 142.214844 16.671875 141.667969 16.671875 C 141.121094 16.671875 140.578125 16.617188 140.039062 16.511719 C 139.503906 16.402344 138.984375 16.246094 138.476562 16.035156 C 137.972656 15.828125 137.492188 15.570312 137.035156 15.265625 C 136.582031 14.960938 136.160156 14.617188 135.773438 14.230469 C 135.386719 13.84375 135.042969 13.421875 134.738281 12.964844 C 134.433594 12.511719 134.175781 12.03125 133.96875 11.527344 C 133.757812 11.019531 133.601562 10.5 133.492188 9.960938 C 133.386719 9.425781 133.332031 8.882812 133.332031 8.335938 C 133.332031 7.789062 133.386719 7.246094 133.492188 6.710938 C 133.601562 6.175781 133.757812 5.652344 133.96875 5.148438 C 134.175781 4.640625 134.433594 4.160156 134.738281 3.707031 C 135.042969 3.253906 135.386719 2.832031 135.773438 2.445312 C 136.160156 2.058594 136.582031 1.710938 137.035156 1.40625 C 137.492188 1.105469 137.972656 0.847656 138.476562 0.636719 C 138.984375 0.429688 139.503906 0.269531 140.039062 0.164062 C 140.578125 0.0585938 141.121094 0.00390625 141.667969 0.00390625 C 142.214844 0.00390625 142.753906 0.0585938 143.292969 0.164062 C 143.828125 0.269531 144.351562 0.429688 144.855469 0.636719 C 145.359375 0.847656 145.839844 1.105469 146.296875 1.40625 C 146.75 1.710938 147.171875 2.058594 147.558594 2.445312 C 147.945312 2.832031 148.292969 3.253906 148.59375 3.707031 C 148.898438 4.160156 149.15625 4.640625 149.367188 5.148438 C 149.574219 5.652344 149.734375 6.175781 149.839844 6.710938 C 149.945312 7.246094 150 7.789062 150 8.335938 Z M 150 8.335938 " fill-opacity="1" fill-rule="nonzero"/><path fill="#3c65f5" d="M 150 74.988281 C 150 75.539062 149.945312 76.078125 149.839844 76.617188 C 149.734375 77.152344 149.574219 77.671875 149.367188 78.179688 C 149.15625 78.683594 148.898438 79.164062 148.59375 79.621094 C 148.292969 80.074219 147.945312 80.496094 147.558594 80.882812 C 147.171875 81.269531 146.75 81.613281 146.296875 81.917969 C 145.839844 82.222656 145.359375 82.480469 144.855469 82.6875 C 144.351562 82.898438 143.828125 83.054688 143.292969 83.164062 C 142.753906 83.269531 142.214844 83.324219 141.667969 83.324219 C 141.121094 83.324219 140.578125 83.269531 140.039062 83.164062 C 139.503906 83.054688 138.984375 82.898438 138.476562 82.6875 C 137.972656 82.480469 137.492188 82.222656 137.035156 81.917969 C 136.582031 81.613281 136.160156 81.269531 135.773438 80.882812 C 135.386719 80.496094 135.042969 80.074219 134.738281 79.621094 C 134.433594 79.164062 134.175781 78.683594 133.96875 78.179688 C 133.757812 77.671875 133.601562 77.152344 133.492188 76.617188 C 133.386719 76.078125 133.332031 75.539062 133.332031 74.988281 C 133.332031 74.441406 133.386719 73.902344 133.492188 73.363281 C 133.601562 72.828125 133.757812 72.304688 133.96875 71.800781 C 134.175781 71.296875 134.433594 70.816406 134.738281 70.359375 C 135.042969 69.90625 135.386719 69.484375 135.773438 69.097656 C 136.160156 68.710938 136.582031 68.363281 137.035156 68.0625 C 137.492188 67.757812 137.972656 67.5 138.476562 67.289062 C 138.984375 67.082031 139.503906 66.921875 140.039062 66.816406 C 140.578125 66.710938 141.121094 66.65625 141.667969 66.65625 C 142.214844 66.65625 142.753906 66.710938 143.292969 66.816406 C 143.828125 66.921875 144.351562 67.082031 144.855469 67.289062 C 145.359375 67.5 145.839844 67.757812 146.296875 68.0625 C 146.75 68.363281 147.171875 68.710938 147.558594 69.097656 C 147.945312 69.484375 148.292969 69.90625 148.59375 70.359375 C 148.898438 70.816406 149.15625 71.296875 149.367188 71.800781 C 149.574219 72.304688 149.734375 72.828125 149.839844 73.363281 C 149.945312 73.902344 150 74.441406 150 74.988281 Z M 150 74.988281 " fill-opacity="1" fill-rule="nonzero"/><path fill="#3c65f5" d="M 150 141.65625 C 150 142.203125 149.945312 142.746094 149.839844 143.28125 C 149.734375 143.820312 149.574219 144.339844 149.367188 144.84375 C 149.15625 145.351562 148.898438 145.832031 148.59375 146.285156 C 148.292969 146.742188 147.945312 147.164062 147.558594 147.550781 C 147.171875 147.9375 146.75 148.28125 146.296875 148.585938 C 145.839844 148.890625 145.359375 149.144531 144.855469 149.355469 C 144.351562 149.566406 143.828125 149.722656 143.292969 149.828125 C 142.753906 149.9375 142.214844 149.988281 141.667969 149.988281 C 141.121094 149.988281 140.578125 149.9375 140.039062 149.828125 C 139.503906 149.722656 138.984375 149.566406 138.476562 149.355469 C 137.972656 149.144531 137.492188 148.890625 137.035156 148.585938 C 136.582031 148.28125 136.160156 147.9375 135.773438 147.550781 C 135.386719 147.164062 135.042969 146.742188 134.738281 146.285156 C 134.433594 145.832031 134.175781 145.351562 133.96875 144.84375 C 133.757812 144.339844 133.601562 143.820312 133.492188 143.28125 C 133.386719 142.746094 133.332031 142.203125 133.332031 141.65625 C 133.332031 141.109375 133.386719 140.566406 133.492188 140.03125 C 133.601562 139.496094 133.757812 138.972656 133.96875 138.46875 C 134.175781 137.960938 134.433594 137.480469 134.738281 137.027344 C 135.042969 136.570312 135.386719 136.152344 135.773438 135.765625 C 136.160156 135.378906 136.582031 135.03125 137.035156 134.726562 C 137.492188 134.421875 137.972656 134.167969 138.476562 133.957031 C 138.984375 133.75 139.503906 133.589844 140.039062 133.484375 C 140.578125 133.375 141.121094 133.324219 141.667969 133.324219 C 142.214844 133.324219 142.753906 133.375 143.292969 133.484375 C 143.828125 133.589844 144.351562 133.75 144.855469 133.957031 C 145.359375 134.167969 145.839844 134.421875 146.296875 134.726562 C 146.75 135.03125 147.171875 135.378906 147.558594 135.765625 C 147.945312 136.152344 148.292969 136.570312 148.59375 137.027344 C 148.898438 137.480469 149.15625 137.960938 149.367188 138.46875 C 149.574219 138.972656 149.734375 139.496094 149.839844 140.03125 C 149.945312 140.566406 150 141.109375 150 141.65625 Z M 150 141.65625 " fill-opacity="1" fill-rule="nonzero"/></svg>